<svg xmlns="http://www.w3.org/2000/svg" width="170" height="189" fill="none" viewBox="0 0 170 189">
  <path fill="#059669" d="M28.431 188.371h121.875a18.75 18.75 0 0 0 18.75-18.75v-150a18.75 18.75 0 0 0-18.75-18.75H19.056a18.75 18.75 0 0 0-18.75 18.75v150a18.749 18.749 0 0 0 18.75 18.75h9.375Zm56.25-159.384c15.441 0 28.125 12.665 28.125 28.125 0 15.45-12.684 28.134-28.124 28.134-15.441 0-28.126-12.684-28.126-28.134 0-15.46 12.685-28.125 28.126-28.125ZM28.431 143.84c0-20.803 25.36-42.188 56.25-42.188 30.891 0 56.25 21.385 56.25 42.188v7.031h-112.5v-7.031Z"/>
</svg>
