<svg xmlns="http://www.w3.org/2000/svg" width="35" height="35" fill="none" viewBox="0 0 35 35">
  <path fill="#000" d="M20.917 17.5h2.562v4.817l4.169 2.41-1.282 2.22-5.45-3.143V17.5ZM3.833.417H27.75a3.417 3.417 0 0 1 3.417 3.416v10.421a11.887 11.887 0 0 1 3.416 8.371 11.958 11.958 0 0 1-11.958 11.958 11.887 11.887 0 0 1-8.37-3.416H3.832A3.417 3.417 0 0 1 .417 27.75V3.833A3.417 3.417 0 0 1 3.833.417m0 22.208v5.125h7.978a11.98 11.98 0 0 1-1.144-5.125H3.833Zm0-11.958h10.25V5.542H3.833v5.125Zm23.917 0V5.542H17.5v5.125h10.25ZM3.833 19.208h7.33a11.87 11.87 0 0 1 3.091-5.125H3.834v5.125Zm18.792-4.868a8.286 8.286 0 1 0 8.285 8.285 8.282 8.282 0 0 0-8.285-8.285Z"/>
</svg>
