<svg xmlns="http://www.w3.org/2000/svg" width="690.069" height="198.021">
  <g fill-rule="evenodd" clip-rule="evenodd" fill="#3B3B3B">
    <path d="M192.551 140.626l-12.646 41.447-1.085-.297 9.676-38.105c-47.264-.77-94.177-1.53-141.091-2.294l.008-1.116c48.209-.091 96.417.223 145.138.365zM638.283 141.366c-46.884.762-93.771 1.527-141.109 2.297l9.673 38.063c-.357.104-.715.206-1.069.31-4.174-13.654-8.35-27.306-12.666-41.428h145.139c.009.254.022.505.032.758z"/>
  </g>
  <path fill-rule="evenodd" clip-rule="evenodd" fill="#0C795D" d="M347.5 24.545c.882-.538 1.869-1.471 2.834-1.806.344-.12.822-.212 1.334-.202.831.019 1.667.188 1.667.188l.108 3.451-5.943-1.631zm13.382 3.667c-.751-1.115-1.817-3.043-3.243-3.888-.681-.405-2.358-1.086-2.358-1.086l.152 3.471 5.449 1.503zm-2.657 1.163l2.723.737-.146 3.958-2.622-.474.045-4.221zm-5.274-1.415l3.602.978-.06 4.359-3.511-.662-.031-4.675zm-5.327-1.399l3.602.978.069 4.787-3.64-.673-.031-5.092zm4.96 8.115l3.884.717.009 5.252-3.85-.259-.043-5.71zm.059 7.407l3.851.232.064 4.168-3.905-.073-.01-4.327zm.049 5.987l3.84.108.019 3.265-3.858.224-.001-3.597zm.007 5.276l3.856-.22.035 2.939-3.875.353-.016-3.072zm-6.861-31.689c1.565-.635 3.646-1.189 4.967-1.45 1.081-.211 2.768-.543 4.773.167 3.175 1.127 6.983 5.897 6.984 5.908l1.3 40.835-16.217 1.348-2.937-.561 1.13-46.247zm-35.434 35.662l5.847.099-.068 6.602-.147-.001-.182-6.171-5.003-.091-.142 6.352-.136-.011-.169-6.779zm34.124 29.233c5.803-5.417 11.269-8.794 16.57-10.209 6.201-1.653 11.229-.886 16.87.612l25.769 8.906-7.672-25.36-31.943 3.93.007 3.106-12.254 1.683 8.142 1.512-.148.36-40.238-6.938-1.607.188-.195-8.214-7.912-.191-.099 8.361 22.578 11.471-.068.144-22.578-10.897-.04 1.829 13.5 8.747-.114.173c2.925.401 6.413.977 11.416 3.568 4.906 2.541 9.975 7.219 10.016 7.219m3.9-70.521c1.585-.862 4.233-1.746 6.833-1.93 3.538-.25 7.506.209 11.204.997l16.783 4.146 4.228 13.646-27.753-11.984c-1.156-1.341-2.995-2.921-4.928-3.52-.741-.229-1.674-.477-2.713-.568-.808-.067-1.91-.012-1.961-.035l-1.693-.752zm-3.84 72.405l6.148-.063c.118 0 3.117-1.327 7.461-2.31 3.833-.868 8.512-1.405 12.81-1.407 5.548-.003 13.233.37 20.48 1.124 4.133.433 8.328.818 11.413 1.22.464.062-4.597-1.54-11.199-3.935-6.244-2.262-13.872-5.069-19.772-5.769-3.846-.455-7.588-.087-10.949.925-6.647 2.004-11.944 6.11-14.572 8.455-1.209 1.083-1.929 1.761-1.82 1.76m-.061 0l-6.147-.063c-.118 0-3.117-1.327-7.462-2.31-3.833-.868-8.513-1.405-12.81-1.407-5.547-.003-13.232.37-20.479 1.124-4.133.433-8.328.818-11.414 1.22-.464.062 4.598-1.54 11.201-3.935 6.242-2.262 13.871-5.069 19.77-5.769 3.846-.455 7.589-.087 10.952.925 6.645 2.004 11.941 6.11 14.571 8.455 1.208 1.083 1.928 1.761 1.818 1.76m-53.321-21.577c7.829 2.549 18.435 1.093 18.504 1.135l13.399 7.757c.259.149-4.942-.86-13.476 1.73-4.031 1.223-8.641 2.882-12.728 4.329-6.237 2.21-11.36 4.108-11.266 3.794l5.567-18.745zm50.555-46.531l2.619 47.515-16.457-2.982-.332-39.48 14.17-5.053zm-21.304 31.77l.473 11.56-.817-.15-.48.133-.059-10.479-12.067-.299.305 13.533c.006.25-5.026 1.192-8.708 1.04-5.056-.212-9.34-2.098-9.335-2.303l.364-13.818c.003-.163 3.032-.644 5.854-.914 1.531-.147 3.05-.192 3.944-.221 7.283-.221 19.454 1.711 20.198 1.854l.328.064zm-27.992-5.619l.14 3.317c.004.106 6.041-.663 11.063-.52 6.884.195 13.302 1.364 13.298 1.32l-.369-3.76c-.013-.123-2.848-.491-5.894-.773-3.793-.355-8.133-.818-12.184-.668-3.154.122-4.647.676-6.054 1.084m55.506-29.441c.108.045-1.92.235-4.377 1.092-4.536 1.581-10.993 4.038-10.988 3.992l1.296-11.118 14.069 6.034zm-17.254-5.773l1.77 10.915-6.445 2.385 1.566 40.261-6.519-1.154-.014-12.191-3.825-.785-.006-4.293-.803-.139-.356-27.907 14.632-7.092zm-28.412 33.548c-.083-2.58 1.921-2.652 3.064-1.914 1.564 1.007 1.349 2.109 1.441 2.115l-4.505-.201zm-4.667-8.93l12.031-4.14.831 13.151.182-.008.017-13.563 4.762-2.688.845 17.574-4.724-.659-4.183-.469c-.014-.001-.011-.278-.115-.643a3.63 3.63 0 00-1.098-1.688c-.953-.832-3.836-2.066-5.682-.066-.895.966-1.056 2.162-1.195 2.169l-1.495.091-.176-9.061zm7.472-16.306l10.827-2.687-1.028.557.499 10.998-15.092 5.313 4.794-14.181zm142.517 24.316l-43.755-.01c-1.676 0-2.37 1.156-3.158 2.637-.697 1.307-1.267 2.967-1.085 2.967l44.24.008c.32 0 2.06-.441 2.753-1.766.912-1.746 1.051-3.998 1.005-3.836m8.003-8.086h-47.319c-2.187 0-3.243 1.511-4.031 2.993-.698 1.308-1.27 2.609-1.085 2.609h48.677c.323 0 2.062-.438 2.754-1.768.912-1.744 1.051-3.994 1.004-3.834m-221.722 0h47.319c2.186 0 3.24 1.511 4.031 2.993.698 1.308 1.27 2.609 1.083 2.609h-48.674c-.323 0-2.06-.438-2.754-1.768-.912-1.744-1.051-3.994-1.005-3.834m163.324 13.447l-.008.362.006-.025-.026 10.45-33.056 2.334-.316-36.04-2.535-3.702 35.964 15.468-.029 11.153zm-95.823-31.067l3.884-.004 16.07-3.839 10.972-5.184 14.417 6.174c.133.06 2.708-1.719 6.305-2.336 2.224-.38 5.137-.373 6.399-.312 4.922.244 12.625 2.362 17.986 3.766 3.11.813 5.353 1.323 5.756 1.33l3.311.063 7.175 17.961 1.41.552 3.159-6.377c1.064-2.146 4.028-4.357 6.438-4.357h59.099c.063-.22-.128 3.098-1.379 5.491-.95 1.818-3.133 2.215-3.577 2.22l-7.47.073-43.608-.041c-3.175-.002-4.608 1.734-5.55 3.949l-4.55 10.693-.061 3.949 41.374.008c.045-.158-.093 2.091-1.004 3.835-.695 1.328-2.433 1.769-2.755 1.769l-34.012-.008 12.223 33.02-56.525.048c-.459 0-8.164 3.68-12.38 3.773-4.354.094-12.029-3.675-12.402-3.676l-56.165-.105 10.308-29.348-.016-3.713-31.913.009c-.32 0-2.063-.44-2.752-1.769-.913-1.744-1.053-3.993-1.006-3.835l35.65-.007-.009-2.474-40.541.008c-.322 0-2.06-.441-2.753-1.766-.912-1.745-1.053-3.997-1.006-3.836l43.755-.01c1.676 0 2.369 1.156 3.157 2.637.309.58.594 1.227.799 1.771l.053-.014.362-2.435.738-.139-3.443-8.387c-.914-2.228-2.374-3.951-5.548-3.949l-43.607.041-7.473-.073c-.442-.005-2.623-.401-3.575-2.22-1.25-2.394-1.443-5.711-1.377-5.491h59.094c2.41 0 5.481 2.163 6.438 4.357l3.258 7.465 6.867-19.257z"/>
  <g fill="#3B3B3B">
    <path d="M208.113 155.575c0 1.014.019 2.009.056 2.985s.084 1.973.14 2.986c-.382-.037-.758-.069-1.13-.098s-.749-.042-1.13-.042c-.418 0-.837.014-1.255.042-.419.028-.837.061-1.256.098.158-1.749.26-3.495.307-5.239s.07-3.495.07-5.254c0-1.516-.014-3.027-.042-4.534a73.469 73.469 0 00-.224-4.521c1.2.093 2.396.145 3.586.153 1.191.01 2.386.015 3.586.015h3.432c1.2 0 2.391-.005 3.572-.015a51.906 51.906 0 003.572-.153c-.038.651-.084 1.3-.14 1.946a34.116 34.116 0 00-.112 1.947 264.226 264.226 0 00-.083 6.655c0 1.507.014 3.007.042 4.5.028 1.493.098 2.993.209 4.5-.381-.037-.763-.069-1.144-.098s-.763-.042-1.144-.042c-.438 0-.861.014-1.27.042s-.833.061-1.27.098c.037-.67.079-1.328.125-1.975.046-.646.088-1.305.125-1.975.037-.549.051-1.086.042-1.611s-.014-1.063-.014-1.611c.019-1.451.023-2.896.014-4.333-.009-1.437.004-2.881.042-4.332 0-.224.007-.444.021-.663a10.6 10.6 0 00.021-.677c-.726-.037-1.456-.069-2.19-.098-.735-.027-1.465-.042-2.191-.042s-1.454.015-2.184.042c-.73.028-1.458.061-2.184.098v11.206zM223.448 141.998c.437.037.881.07 1.333.098.451.028.895.042 1.333.042.855 0 1.702-.056 2.54-.167.437.874.883 1.746 1.339 2.616.456.869.912 1.732 1.368 2.588.214.419.453.833.718 1.242s.504.823.719 1.241c.037.075.119.23.244.468a23.323 23.323 0 00.838 1.451c.135.209.23.342.286.397.075 0 .212-.186.412-.558.2-.372.444-.858.733-1.458.288-.601.604-1.268.949-2.003l1.019-2.177c.307-.632.588-1.263.844-1.891s.537-1.258.844-1.891c.214.056.43.093.649.111.218.02.43.028.635.028.232 0 .467-.014.705-.042.237-.027.472-.061.705-.098-.493.939-.975 1.833-1.444 2.679-.47.847-.937 1.698-1.402 2.554-.465.856-.937 1.742-1.416 2.658-.479.916-.975 1.905-1.486 2.965a914.17 914.17 0 00-.802 1.688c-.172.363-.328.698-.467 1.005s-.228.507-.265.6a48.97 48.97 0 00-1.103 2.7 54.118 54.118 0 00-.935 2.7l-.984-.084a7.494 7.494 0 00-.649-.027c-.149 0-.323.009-.523.027l-.844.084c.288-.475.542-.902.76-1.284.219-.381.428-.758.628-1.13s.4-.763.6-1.172.412-.87.635-1.382c-.111-.344-.328-.807-.649-1.388-.321-.582-.644-1.17-.97-1.766a126.06 126.06 0 00-1.807-3.167c-.572-.968-1.133-1.9-1.682-2.798s-1.1-1.788-1.653-2.672c-.557-.88-1.141-1.81-1.755-2.787zM251.941 146.198a302.762 302.762 0 00-.084 7.116c0 .614.005 1.226.014 1.835s.014 1.216.014 1.82c0 .764.018 1.526.056 2.289.037.763.065 1.525.083 2.288-.381-.037-.772-.069-1.172-.098s-.791-.042-1.172-.042-.772.019-1.172.056-.791.065-1.172.084c.037-.67.077-1.347.118-2.03.042-.684.072-1.36.091-2.03.037-1.618.07-3.232.098-4.842s.042-3.224.042-4.842a82.97 82.97 0 00-.083-3.684 28.237 28.237 0 00-2.498.111 70.126 70.126 0 00-2.762.279 4.34 4.34 0 00.14-1.081c0-.358-.019-.719-.056-1.082a.58.58 0 01-.028-.188c0-.069-.019-.123-.056-.16.363.019.721.028 1.075.028.353 0 .707.009 1.06.027.884.019 1.753.042 2.609.07a82.284 82.284 0 004.067.027c.488-.009.979-.014 1.472-.014.744 0 1.484-.023 2.219-.069.734-.047 1.474-.07 2.218-.07-.046.195-.079.389-.098.579s-.028.379-.028.565c0 .232.009.463.028.69.019.229.051.453.098.677a43.396 43.396 0 00-2.54-.307 22.679 22.679 0 00-2.525-.084l-.056 2.082zM270.722 150.063c-.037.223-.07.444-.098.662a5.327 5.327 0 00-.042.677c0 .187.014.365.042.538.028.172.061.355.098.551-.856-.056-1.705-.104-2.546-.146s-1.691-.072-2.546-.091c-.223 0-.454-.005-.691-.014-.237-.01-.472-.015-.705-.015 0 .614-.005 1.222-.014 1.821a108.433 108.433 0 000 3.615c.009.591.014 1.188.014 1.793 1.107 0 2.207-.033 3.3-.098a78.21 78.21 0 003.3-.266c-.075.345-.112.693-.112 1.047s.019.707.056 1.061a.646.646 0 01.028.182c0 .056.009.111.028.167a80.635 80.635 0 01-2.582-.098 47.819 47.819 0 00-2.595-.069c-.549 0-1.109.014-1.681.041-.572.028-1.133.042-1.682.042-.837 0-1.688.028-2.553.084.046-.27.069-.542.069-.816s.009-.546.028-.816c.037-.893.065-1.776.083-2.65l.056-2.693c0-.726.005-1.449.014-2.17s.014-1.444.014-2.17v-3.349c0-.734-.028-1.483-.084-2.246s-.083-1.517-.083-2.261v-.377a63.24 63.24 0 012.26.098c.753.047 1.512.07 2.274.07 1.088 0 2.165-.019 3.23-.057 1.065-.037 2.142-.064 3.23-.083-.075.344-.112.692-.112 1.046s.019.712.056 1.075c.019.056.028.111.028.167s.009.111.028.167c-1.088-.093-2.175-.181-3.258-.265s-2.169-.106-3.258-.069a72.774 72.774 0 00-.056 2.971c0 .53-.004 1.059-.014 1.584s-.014 1.053-.014 1.583l6.49-.223zM291.722 161.547a7.268 7.268 0 00-1.214-.126 59.204 59.204 0 00-1.242-.014c-.381 0-.763.01-1.144.028s-.763.056-1.144.111c.093-1.032.148-2.063.167-3.091.018-1.027.028-2.063.028-3.104v-4.005c0-.613-.01-1.211-.028-1.793l-.056-1.751c-1.86 2.187-3.621 4.446-5.281 6.781s-3.347 4.656-5.058 6.963a5.814 5.814 0 00-1.2-.14c-.214 0-.409.014-.586.042s-.363.061-.558.098v-8.944c0-1.767-.051-3.527-.153-5.281-.103-1.753-.205-3.519-.307-5.295.381.037.772.064 1.172.083.399.02.791.028 1.172.028s.772-.014 1.172-.042c.4-.027.791-.061 1.172-.098-.037.67-.079 1.338-.125 2.003-.047.665-.07 1.332-.07 2.002 0 .53-.005 1.059-.014 1.584s-.014 1.053-.014 1.583v3.146c0 1.047.009 2.096.028 3.146a164.071 164.071 0 005.295-6.62 218.846 218.846 0 004.988-6.845c.474.093.902.14 1.284.14a6.75 6.75 0 001.284-.14 35.358 35.358 0 00-.098 2.979c.009.99.014 1.979.014 2.965 0 2.288.035 4.561.105 6.816s.206 4.521.411 6.791zm-12.544-24.237c.438.67.97 1.138 1.598 1.402.628.266 1.323.397 2.086.397.744 0 1.435-.132 2.072-.397s1.156-.732 1.556-1.402l.921.488c-.4.978-1.004 1.722-1.813 2.232-.81.512-1.73.768-2.763.768-1.042 0-1.958-.256-2.749-.768-.791-.511-1.396-1.255-1.814-2.232l.906-.488zM318.861 160.695c-.856.438-1.77.752-2.742.942-.972.19-1.942.286-2.909.286-.726 0-1.356-.035-1.891-.104-.535-.07-1.156-.18-1.863-.328a3.649 3.649 0 01-.726-.23c-.279-.116-.57-.239-.872-.37a12.398 12.398 0 01-1.542-.795 8.68 8.68 0 01-1.116-.949 8.871 8.871 0 01-.935-1.088c-.633-.855-1.091-1.746-1.375-2.672s-.426-1.919-.426-2.979c0-1.618.237-3.1.712-4.444.474-1.344 1.33-2.569 2.567-3.677a9.846 9.846 0 013.802-2.022c1.428-.4 2.858-.601 4.291-.601.949 0 1.947.119 2.993.356 1.046.236 1.993.574 2.839 1.011-.14.493-.256.979-.349 1.459-.093.479-.2.965-.321 1.458h-.391a5.977 5.977 0 00-2.079-1.828 5.545 5.545 0 00-2.666-.684c-1.181 0-2.195.251-3.042.753a6.438 6.438 0 00-2.086 1.968 8.41 8.41 0 00-1.186 2.756 13.186 13.186 0 00-.37 3.091c0 1.032.124 2.049.37 3.049s.681 1.918 1.304 2.756c.614.8 1.379 1.404 2.295 1.813s1.868.614 2.854.614c.893 0 1.807-.2 2.742-.6.935-.4 1.728-.907 2.379-1.521l.363.14-.624 2.44zM343.405 151.752c0 1.441-.284 2.83-.852 4.165s-1.405 2.485-2.511 3.453c-1.145.995-2.375 1.693-3.691 2.093-1.316.4-2.714.601-4.193.601-1.396 0-2.789-.224-4.179-.67s-2.593-1.167-3.607-2.163c-1.042-1.023-1.768-2.146-2.177-3.369-.409-1.224-.614-2.556-.614-3.998 0-1.488.281-2.891.844-4.207.563-1.316 1.411-2.458 2.546-3.426 1.144-.977 2.379-1.66 3.705-2.051s2.714-.586 4.165-.586c1.163 0 2.318.153 3.467.46a9.977 9.977 0 013.161 1.466c.726.493 1.339 1.03 1.842 1.611s.916 1.281 1.242 2.1c.307.726.525 1.466.656 2.219.131.753.196 1.52.196 2.302zm-11.107 8.623c1.181 0 2.195-.296 3.042-.887.847-.59 1.544-1.388 2.093-2.393a8.586 8.586 0 00.991-2.867 19.52 19.52 0 00.237-3.021c0-.921-.109-1.851-.328-2.79a8.21 8.21 0 00-1.054-2.554c-.483-.763-1.107-1.389-1.87-1.877s-1.679-.732-2.749-.732c-.642 0-1.212.067-1.709.202s-1.002.394-1.514.774a6.096 6.096 0 00-1.13 1.074c-.372.447-.661.88-.865 1.298a10.158 10.158 0 00-.886 2.973 21.958 21.958 0 00-.23 3.111c0 .931.109 1.854.328 2.77a7.904 7.904 0 001.04 2.477c.475.735 1.093 1.326 1.856 1.772s1.679.67 2.748.67zM367.21 151.752c0 1.441-.284 2.83-.852 4.165s-1.405 2.485-2.511 3.453c-1.145.995-2.375 1.693-3.691 2.093-1.316.4-2.714.601-4.193.601-1.396 0-2.789-.224-4.179-.67s-2.593-1.167-3.607-2.163c-1.042-1.023-1.768-2.146-2.177-3.369-.409-1.224-.614-2.556-.614-3.998 0-1.488.281-2.891.844-4.207.563-1.316 1.411-2.458 2.546-3.426 1.144-.977 2.379-1.66 3.705-2.051s2.714-.586 4.165-.586c1.163 0 2.318.153 3.467.46a9.977 9.977 0 013.161 1.466c.726.493 1.339 1.03 1.842 1.611s.916 1.281 1.242 2.1c.307.726.525 1.466.656 2.219.131.753.196 1.52.196 2.302zm-11.107 8.623c1.181 0 2.195-.296 3.042-.887.847-.59 1.544-1.388 2.093-2.393a8.586 8.586 0 00.991-2.867 19.52 19.52 0 00.237-3.021c0-.921-.109-1.851-.328-2.79a8.21 8.21 0 00-1.054-2.554c-.483-.763-1.107-1.389-1.87-1.877s-1.679-.732-2.749-.732c-.642 0-1.212.067-1.709.202s-1.002.394-1.514.774a6.096 6.096 0 00-1.13 1.074c-.372.447-.661.88-.865 1.298a10.158 10.158 0 00-.886 2.973 21.958 21.958 0 00-.23 3.111c0 .931.109 1.854.328 2.77a7.904 7.904 0 001.04 2.477c.475.735 1.093 1.326 1.856 1.772s1.678.67 2.748.67zM374.73 144.147c-.019.549-.038 1.108-.056 1.681s-.028 1.133-.028 1.682c0 .502.005 1 .014 1.493s.014.986.014 1.479c.167.02.328.028.481.028h.468c.437 0 .855-.009 1.255-.028.4-.019.902-.027 1.507-.027.921 0 1.723.14 2.407.418a4.798 4.798 0 011.709 1.145c.456.484.797 1.061 1.025 1.73s.342 1.404.342 2.204c0 .717-.128 1.4-.384 2.052s-.63 1.241-1.123 1.771c-.344.363-.73.658-1.158.887a6.856 6.856 0 01-1.354.544c-.474.135-.96.226-1.458.272-.498.046-.975.069-1.43.069-.707 0-1.407-.014-2.1-.042a53.922 53.922 0 00-2.1-.042c-.418 0-.833.01-1.242.028l-1.242.056c.093-.67.148-1.328.167-1.975l.056-1.975a272.082 272.082 0 00.111-7.856c0-1.274-.038-2.561-.112-3.858a67.317 67.317 0 01-.112-3.886c.27.019.598.037.984.056.386.019.791.037 1.214.056a50.97 50.97 0 002.17.057c1.312 0 2.611-.015 3.9-.042 1.288-.028 2.714-.061 4.277-.098a5.779 5.779 0 00-.112 1.172c0 .214.004.431.014.648.009.219.042.431.098.635l-2.917-.223a37.715 37.715 0 00-2.916-.111h-2.369zm-.056 15.711a16.342 16.342 0 001.395.056c.521 0 .986-.1 1.396-.3.409-.2.755-.47 1.04-.81.284-.339.502-.739.656-1.199a4.6 4.6 0 00.23-1.459c0-1.413-.323-2.443-.97-3.09s-1.588-.97-2.826-.97a8.884 8.884 0 00-.948.056c-.019.688-.028 1.374-.028 2.058v2.059l.055 3.599zM410.451 162.831c-.326-.4-.736-.7-1.234-.9s-1.102-.342-1.814-.426c-.711-.084-1.549-.125-2.512-.125h-12.258c-1.898 0-3.712.056-5.442.167.148-1.73.237-3.453.265-5.17.028-1.716.051-3.439.07-5.17 0-1.544-.01-3.078-.028-4.604a76.825 76.825 0 00-.195-4.604c.381.037.768.07 1.158.098a16.21 16.21 0 002.33 0c.399-.027.791-.061 1.172-.098-.019.67-.049 1.333-.091 1.988-.042.656-.082 1.318-.119 1.988-.037.931-.056 1.84-.056 2.729v5.295c0 .856.004 1.628.014 2.316.009.688.019 1.274.028 1.758.009.484.014.852.014 1.103.456.019 1.079.032 1.87.042.791.009 1.577.023 2.358.042a98.531 98.531 0 00.182-4.012 156.183 156.183 0 00.056-4.194 250.772 250.772 0 00-.056-5.218c-.019-.65-.042-1.29-.07-1.918a35.033 35.033 0 00-.14-1.919c.381.037.768.07 1.158.098a16.182 16.182 0 002.329 0c.4-.027.791-.061 1.174-.098l-.113 1.904a64.579 64.579 0 00-.082 1.905c-.039.93-.076 1.862-.113 2.798a70.715 70.715 0 00-.055 2.797c0 .986-.012 1.971-.035 2.951-.023.981-.012 1.97.035 2.966.018.381.027.728.027 1.039s.01.612.027.9a190.19 190.19 0 012.443-.042c.828-.01 1.488-.023 1.98-.042 0-.148.004-.396.014-.739.01-.345.014-.761.014-1.249s.006-1.032.016-1.633c.008-.6.014-1.211.014-1.835v-2.561c0-.869-.006-1.665-.014-2.386-.01-.721-.016-1.349-.016-1.884v-1.081c0-.633-.014-1.268-.041-1.905-.027-.637-.061-1.271-.098-1.904.381.037.771.07 1.172.098a16.794 16.794 0 002.358 0c.391-.027.787-.061 1.188-.098-.037.651-.086 1.3-.146 1.946a28.728 28.728 0 00-.119 1.947c-.02 1.125-.037 2.234-.057 3.327a202.29 202.29 0 00-.027 3.328c0 1.145.025 2.293.076 3.446.051 1.154.123 2.298.217 3.433l1.592.07a6.258 6.258 0 00-.168 1.507c0 .595.055 1.204.168 1.828h-.42zM424.475 150.063c-.038.223-.07.444-.098.662a5.327 5.327 0 00-.042.677c0 .187.014.365.042.538.027.172.06.355.098.551-.856-.056-1.705-.104-2.547-.146s-1.69-.072-2.547-.091c-.223 0-.453-.005-.69-.014-.237-.01-.472-.015-.704-.015 0 .614-.005 1.222-.015 1.821a120.429 120.429 0 000 3.615c.01.591.015 1.188.015 1.793 1.106 0 2.206-.033 3.3-.098a78.344 78.344 0 003.3-.266c-.074.345-.111.693-.111 1.047s.019.707.056 1.061a.643.643 0 01.027.182c0 .056.01.111.028.167-.856-.019-1.716-.051-2.581-.098s-1.73-.069-2.596-.069c-.549 0-1.109.014-1.682.041a34.41 34.41 0 01-1.681.042c-.838 0-1.688.028-2.554.084.046-.27.069-.542.069-.816s.01-.546.028-.816c.037-.893.064-1.776.084-2.65l.056-2.693c0-.726.004-1.449.014-2.17.009-.721.014-1.444.014-2.17v-3.349c0-.734-.027-1.483-.083-2.246a30.342 30.342 0 01-.084-2.261v-.377c.753.019 1.507.052 2.261.098.753.047 1.511.07 2.274.07a90.54 90.54 0 003.229-.057c1.065-.037 2.142-.064 3.23-.083-.074.344-.111.692-.111 1.046s.019.712.056 1.075c.019.056.027.111.027.167s.01.111.028.167a419.805 419.805 0 00-3.258-.265 29.276 29.276 0 00-3.259-.069 80.76 80.76 0 00-.056 2.971c0 .53-.005 1.059-.014 1.584-.01.525-.014 1.053-.014 1.583l6.491-.223zM427.726 141.998c.381.037.768.07 1.158.098a16.182 16.182 0 002.33 0c.399-.027.79-.061 1.172-.098-.019.67-.052 1.333-.098 1.988a46.09 46.09 0 00-.098 1.988V149.826c.726.019 1.458.044 2.197.076a49.341 49.341 0 004.375 0 113.05 113.05 0 012.177-.076c0-.66-.008-1.33-.021-2.01a97.494 97.494 0 01-.021-2.009c0-.633-.015-1.268-.042-1.905-.028-.637-.061-1.271-.098-1.904.381.037.771.07 1.172.098a16.794 16.794 0 002.359 0c.391-.027.786-.061 1.186-.098-.037.651-.083 1.3-.14 1.946a33.223 33.223 0 00-.111 1.947l-.056 3.327a191.692 191.692 0 00-.028 3.328c0 1.507.015 3.007.042 4.5.028 1.493.098 2.993.21 4.5a55.826 55.826 0 00-1.145-.098 15.644 15.644 0 00-1.145-.042c-.438 0-.865.014-1.283.042-.419.028-.838.061-1.256.098.037-.67.079-1.328.125-1.975.047-.646.089-1.305.126-1.975.037-.679.056-1.362.056-2.051s.01-1.377.028-2.065c0-.223.007-.448.021-.677.014-.228.021-.458.021-.69l-2.191-.056a84.678 84.678 0 00-4.374 0l-2.184.056v3.461c0 1.014.019 2.009.056 2.985s.084 1.973.14 2.986a61.088 61.088 0 00-1.13-.098 15.085 15.085 0 00-1.131-.042c-.418 0-.837.014-1.256.042-.418.028-.837.061-1.256.098.158-1.749.261-3.49.308-5.226.046-1.734.069-3.49.069-5.268 0-1.516-.014-3.027-.042-4.534a73.555 73.555 0 00-.222-4.519zM462.385 161.547a60.45 60.45 0 00.168-3.656c.019-1.218.027-2.437.027-3.655v-2.609c0-.642-.009-1.276-.027-1.904l-.056-1.919a59.404 59.404 0 00-1.598 1.939c-.591.744-1.207 1.544-1.85 2.4a214.24 214.24 0 00-3.376 4.576 438.321 438.321 0 01-3.517 4.828c-.345-.074-.684-.121-1.019-.14s-.67.01-1.005.084a.604.604 0 01-.167.027.497.497 0 00-.153.028V152.602c0-.911-.02-1.807-.057-2.686l-.111-2.687a59.406 59.406 0 00-.084-1.82 126.81 126.81 0 00-.125-1.808 22.46 22.46 0 01-.042-.788 25.02 25.02 0 00-.042-.788c.121 0 .286.009.495.027.21.019.438.033.684.042l.685.028c.209.009.369.014.48.014.112 0 .274-.005.489-.014.214-.01.443-.019.69-.028.246-.009.475-.023.684-.042s.37-.037.481-.056l-.028.544-.111 1.73a27.012 27.012 0 00-.056 1.73c0 .53-.005 1.059-.014 1.584-.01.525-.015 1.053-.015 1.583v3.146c0 1.047.01 2.096.028 3.146a97.082 97.082 0 002.03-2.47c.628-.79 1.244-1.576 1.849-2.357a151.97 151.97 0 003.16-4.138 265.483 265.483 0 003.244-4.5c.475.093.902.14 1.284.14.381 0 .81-.047 1.283-.14a16.673 16.673 0 00-.056 1.34c0 .781-.005 1.554-.014 2.316a219.735 219.735 0 00.09 9.104c.069 2.256.207 4.519.411 6.788a6.636 6.636 0 00-.509-.056 16.834 16.834 0 00-.719-.042l-.719-.028a14.448 14.448 0 00-.509-.014c-.075 0-.212.005-.412.014-.2.01-.409.02-.628.028-.219.01-.428.023-.628.042s-.342.027-.426.027l-.189.034zM470.703 159.914c.855-1.33 1.684-2.609 2.483-3.837s1.6-2.53 2.4-3.907a5.846 5.846 0 01-1.703-.642 5.373 5.373 0 01-1.354-1.088 4.817 4.817 0 01-.899-1.5 5.29 5.29 0 01-.328-1.905c0-.902.237-1.7.712-2.393a5.493 5.493 0 011.884-1.695c.67-.363 1.399-.616 2.19-.761s1.567-.216 2.33-.216c.679 0 1.362.019 2.052.056.688.037 1.376.046 2.064.027l1.968-.056a190.34 190.34 0 00-.14 3.16 88.703 88.703 0 00-.056 3.161c0 .855-.005 1.716-.015 2.581a248.231 248.231 0 000 5.421c.01.935.052 1.867.126 2.798.037.325.061.64.07.941.009.303.022.616.041.942l.028.544c-.382-.037-.768-.069-1.158-.098a15.605 15.605 0 00-2.316 0c-.39.028-.776.061-1.158.098.037-.493.077-.993.119-1.5s.071-1.007.091-1.5v-.384c0-.125.009-.253.027-.384 0-.855.01-1.704.028-2.546s.027-1.691.027-2.547h-.628a90.228 90.228 0 00-1.019 1.73 72.63 72.63 0 00-1.214 2.204c-.418.791-.847 1.609-1.283 2.456-.438.847-.847 1.67-1.229 2.47a85.508 85.508 0 00-1.283-.098 19.864 19.864 0 00-2.596 0c-.428.028-.86.061-1.298.098l1.037-1.63zm9.515-16.283c-1.488-.148-2.604.123-3.349.816-.744.692-1.116 1.783-1.116 3.271 0 .308.009.545.028.712.019.167.06.404.125.712.112.558.305.975.579 1.249s.603.479.984.613c.381.135.8.217 1.255.244.456.028.936.052 1.438.07v-3.405c0-.381.005-.753.014-1.116.01-.362.015-.734.015-1.116v-1.025c0-.339.009-.681.027-1.025z"/>
    <g>
      <path d="M26.594 126.919c.093-1.217.148-2.434.167-3.65s.028-2.435.028-3.651v-2.605c0-.641-.009-1.275-.028-1.902l-.056-1.916c-.474.549-1.006 1.194-1.596 1.938s-1.205 1.542-1.846 2.396c-1.087 1.431-2.211 2.954-3.372 4.57s-2.332 3.224-3.511 4.821a6.618 6.618 0 00-1.018-.14 3.664 3.664 0 00-1.003.084c-.065.019-.121.027-.167.027s-.097.01-.153.028V117.987c0-.91-.019-1.805-.056-2.683l-.111-2.683a59.44 59.44 0 00-.083-1.818c-.037-.599-.079-1.2-.125-1.805a22.278 22.278 0 01-.042-.787 22.406 22.406 0 00-.042-.787c.121 0 .286.01.495.028s.437.032.683.041l.683.028c.209.01.37.014.481.014s.274-.004.488-.014l.689-.028c.246-.009.474-.022.683-.041s.369-.037.48-.056l-.028.543-.111 1.728a26.958 26.958 0 00-.056 1.729c0 .529-.005 1.057-.014 1.581a92.252 92.252 0 00-.014 1.582v3.142c0 1.045.009 2.093.028 3.143.725-.854 1.4-1.677 2.027-2.467.627-.789 1.242-1.574 1.846-2.354a153.613 153.613 0 003.156-4.132 280.458 280.458 0 003.24-4.493c.474.093.901.139 1.282.139s.808-.046 1.282-.139a16.554 16.554 0 00-.056 1.337c0 .78-.004 1.552-.014 2.313s-.014 1.523-.014 2.285c0 2.285.035 4.555.104 6.807.07 2.253.207 4.513.411 6.779a6.656 6.656 0 00-.508-.056 16.689 16.689 0 00-.718-.042l-.718-.027c-.228-.01-.397-.015-.508-.015-.075 0-.211.005-.411.015-.2.009-.409.019-.627.027-.219.01-.428.023-.627.042s-.341.027-.425.027l-.195.029zM35.206 107.397c.882.056 1.77.083 2.661.083.604 0 1.201-.019 1.791-.056s1.191-.056 1.805-.056c.492 0 1.01.01 1.554.028s1.052.074 1.526.167c1.18.27 2.123.822 2.829 1.658s1.059 1.862 1.059 3.079c0 .846-.107 1.605-.321 2.278-.214.674-.613 1.313-1.198 1.916a5.822 5.822 0 01-.927.815 4.862 4.862 0 01-.898.487 5.677 5.677 0 01-.989.3c-.354.074-.748.153-1.185.236-.344.057-.69.094-1.038.112-.349.019-.704.027-1.066.027h-1.227c-.019.66-.014 1.319.014 1.979.028.66.051 1.319.07 1.979l.056 2.258c.019.743.056 1.486.111 2.229a64.44 64.44 0 00-1.185-.098c-.39-.027-.785-.042-1.184-.042-.381 0-.771.015-1.17.042-.4.028-.79.061-1.171.098.019-.27.037-.522.056-.76a141.59 141.59 0 00.16-2.306c.032-.521.049-1.04.049-1.561 0-.725.004-1.447.014-2.167s.014-1.442.014-2.167c0-1.272-.014-2.543-.042-3.811l-.083-3.839c-.019-.492-.028-.978-.028-1.456s-.021-.959-.057-1.452zm4.402 5.058c-.019.399-.023.799-.014 1.198s.014.799.014 1.198v1.024c0 .338-.009.681-.028 1.024.316-.019.632-.032.948-.042.316-.009.627-.061.934-.153a2.847 2.847 0 001.157-.558c.315-.26.569-.566.759-.919.19-.354.323-.734.397-1.143.074-.409.111-.832.111-1.269 0-.622-.086-1.229-.257-1.818-.172-.59-.514-1.094-1.024-1.512-.27-.214-.562-.349-.878-.404s-.641-.084-.975-.084l-1.059.028-.085 3.43zM51.341 121.777v-8.584l-.181-5.796c.381.037.771.069 1.17.097.399.028.79.042 1.17.042.743 0 1.477-.056 2.202-.167a187.513 187.513 0 00-.167 6.396 65.552 65.552 0 01-.056 2.647c1.272-1.477 2.522-2.958 3.748-4.444s2.411-3.01 3.553-4.57c.27.037.546.069.829.097.283.028.532.042.746.042.26 0 .524-.014.794-.042.27-.027.534-.06.794-.097l-.028.236-4.654 4.988c-.437.474-.864.96-1.282 1.456-.418.497-.836.992-1.254 1.484l7.51 11.008v.349a66.124 66.124 0 00-1.254-.098 18.207 18.207 0 00-2.481 0c-.399.028-.813.061-1.24.098l-2.759-4.334c-.492-.78-.992-1.551-1.498-2.313s-1.015-1.523-1.525-2.285l.167 8.932a51.474 51.474 0 00-1.157-.098c-.39-.027-.775-.042-1.156-.042-.381 0-.748.015-1.101.042-.353.028-.72.061-1.101.098l.211-5.142zM66.655 107.397c.437.037.88.069 1.331.097.45.028.894.042 1.331.042.854 0 1.7-.056 2.536-.167.437.873.882 1.744 1.337 2.612.455.869.911 1.73 1.366 2.585.213.418.453.832.718 1.24.265.409.503.822.717 1.24a34.269 34.269 0 00.655 1.212c.148.261.29.495.425.704s.23.342.286.397c.074 0 .211-.186.411-.558.2-.371.443-.857.731-1.456.288-.6.604-1.266.948-2l1.017-2.174c.307-.631.587-1.261.843-1.888s.537-1.256.843-1.888c.213.056.43.093.648.111s.43.027.634.027a6 6 0 00.704-.042 15.9 15.9 0 00.704-.097c-.493.938-.974 1.83-1.442 2.675-.469.846-.936 1.695-1.4 2.55-.465.855-.936 1.74-1.415 2.655a100.465 100.465 0 00-1.797 3.622l-.488 1.024c-.172.362-.327.697-.467 1.003-.139.307-.228.507-.265.6a52.982 52.982 0 00-2.035 5.392c-.437-.037-.765-.064-.982-.084a7.487 7.487 0 00-.648-.027c-.149 0-.323.009-.522.027l-.843.084a51.05 51.05 0 001.386-2.41 34.701 34.701 0 001.233-2.551c-.111-.343-.328-.806-.648-1.386-.32-.581-.644-1.168-.968-1.763a123.956 123.956 0 00-1.805-3.163 216.682 216.682 0 00-1.679-2.794 320.597 320.597 0 00-1.651-2.669c-.553-.877-1.136-1.807-1.749-2.782zM95.109 111.591a301.913 301.913 0 00-.084 7.106c0 .613.005 1.225.014 1.833s.014 1.215.014 1.818c0 .762.019 1.523.056 2.285.037.762.064 1.523.083 2.285a48.495 48.495 0 00-1.17-.098c-.4-.027-.79-.042-1.171-.042s-.771.019-1.17.056c-.399.038-.79.065-1.17.084.037-.669.077-1.345.119-2.027.042-.683.072-1.358.09-2.027.037-1.616.07-3.229.098-4.835.028-1.607.042-3.219.042-4.836a81.3 81.3 0 00-.084-3.679 28.18 28.18 0 00-2.494.112 70.873 70.873 0 00-2.758.278c.093-.362.139-.723.139-1.08s-.019-.718-.056-1.08a.58.58 0 01-.028-.188c0-.07-.019-.123-.056-.16.362.019.72.027 1.073.027s.706.01 1.059.028c.882.019 1.751.041 2.606.069a79.085 79.085 0 004.061.028c.488-.01.978-.015 1.47-.015.743 0 1.481-.022 2.215-.069s1.472-.069 2.216-.069c-.047.194-.079.388-.098.578s-.028.378-.028.564c0 .232.009.462.028.689s.051.453.098.676a43.372 43.372 0 00-2.536-.307 22.625 22.625 0 00-2.522-.084l-.056 2.08zM118.226 126.069c-.855.437-1.768.75-2.738.94s-1.939.285-2.905.285c-.725 0-1.354-.034-1.888-.104a24.46 24.46 0 01-1.86-.327 3.558 3.558 0 01-.725-.23 51.755 51.755 0 01-.871-.369 12.37 12.37 0 01-1.54-.794c-.381-.27-.752-.585-1.115-.947s-.674-.725-.934-1.087a8.841 8.841 0 01-1.373-2.669 10.078 10.078 0 01-.425-2.975c0-1.616.237-3.096.71-4.438.474-1.342 1.328-2.565 2.564-3.671 1.105-.948 2.371-1.621 3.797-2.021s2.854-.6 4.285-.6c.947 0 1.944.118 2.989.355s1.99.573 2.835 1.01c-.139.493-.255.979-.348 1.457-.093.479-.2.964-.321 1.456h-.39a5.98 5.98 0 00-2.076-1.826 5.536 5.536 0 00-2.661-.683c-1.18 0-2.193.251-3.038.753a6.419 6.419 0 00-2.083 1.965c-.543.808-.938 1.726-1.185 2.752s-.369 2.055-.369 3.086.123 2.046.369 3.045.681 1.916 1.303 2.752c.613.799 1.377 1.402 2.292 1.812s1.865.613 2.85.613c.892 0 1.805-.2 2.738-.6s1.725-.905 2.375-1.519l.362.14-.624 2.439zM122.113 121.777v-8.584l-.181-5.796c.381.037.771.069 1.17.097.399.028.79.042 1.17.042.743 0 1.477-.056 2.202-.167a187.513 187.513 0 00-.167 6.396 65.552 65.552 0 01-.056 2.647c1.272-1.477 2.522-2.958 3.748-4.444s2.411-3.01 3.553-4.57c.27.037.546.069.829.097.283.028.532.042.746.042.26 0 .524-.014.794-.042.27-.027.534-.06.794-.097l-.028.236-4.654 4.988c-.437.474-.864.96-1.282 1.456-.418.497-.836.992-1.254 1.484l7.51 11.008v.349a66.124 66.124 0 00-1.254-.098 18.207 18.207 0 00-2.481 0c-.399.028-.813.061-1.24.098l-2.759-4.334c-.492-.78-.992-1.551-1.498-2.313s-1.015-1.523-1.525-2.285l.167 8.932a51.474 51.474 0 00-1.157-.098c-.39-.027-.775-.042-1.156-.042-.381 0-.748.015-1.101.042-.353.028-.72.061-1.101.098l.211-5.142zM152.267 126.919c.093-1.217.148-2.434.167-3.65s.028-2.435.028-3.651v-2.605c0-.641-.009-1.275-.028-1.902l-.056-1.916c-.474.549-1.006 1.194-1.596 1.938s-1.205 1.542-1.846 2.396c-1.087 1.431-2.211 2.954-3.372 4.57s-2.332 3.224-3.511 4.821a6.618 6.618 0 00-1.018-.14 3.664 3.664 0 00-1.003.084c-.065.019-.121.027-.167.027s-.097.01-.153.028V117.987c0-.91-.019-1.805-.056-2.683l-.111-2.683a59.44 59.44 0 00-.083-1.818c-.037-.599-.079-1.2-.125-1.805a22.278 22.278 0 01-.042-.787 22.406 22.406 0 00-.042-.787c.121 0 .286.01.495.028s.437.032.683.041l.683.028c.209.01.37.014.481.014s.274-.004.488-.014l.689-.028c.246-.009.474-.022.683-.041s.369-.037.48-.056l-.028.543-.111 1.728a26.958 26.958 0 00-.056 1.729c0 .529-.005 1.057-.014 1.581a92.252 92.252 0 00-.014 1.582v3.142c0 1.045.009 2.093.028 3.143.725-.854 1.4-1.677 2.027-2.467.627-.789 1.242-1.574 1.846-2.354a153.613 153.613 0 003.156-4.132 280.458 280.458 0 003.24-4.493c.474.093.901.139 1.282.139s.808-.046 1.282-.139a16.554 16.554 0 00-.056 1.337c0 .78-.004 1.552-.014 2.313s-.014 1.523-.014 2.285c0 2.285.035 4.555.104 6.807.07 2.253.207 4.513.411 6.779a6.656 6.656 0 00-.508-.056 16.689 16.689 0 00-.718-.042l-.718-.027c-.228-.01-.397-.015-.508-.015-.075 0-.211.005-.411.015-.2.009-.409.019-.627.027-.219.01-.428.023-.627.042s-.341.027-.425.027l-.195.029zM178.63 126.919a7.142 7.142 0 00-1.212-.125c-.428-.01-.841-.015-1.24-.015-.381 0-.762.01-1.143.028-.381.019-.762.056-1.143.111.093-1.031.148-2.06.167-3.087.019-1.025.028-2.06.028-3.1v-3.999c0-.613-.009-1.21-.028-1.791l-.056-1.749a98.782 98.782 0 00-5.274 6.772 426.547 426.547 0 01-5.051 6.953 5.797 5.797 0 00-1.199-.14c-.213 0-.409.015-.585.042-.177.028-.362.061-.558.098v-8.932c0-1.765-.051-3.523-.153-5.274-.103-1.751-.205-3.514-.307-5.288a23.836 23.836 0 002.34.111c.38 0 .771-.014 1.17-.042.399-.027.79-.06 1.17-.097-.037.668-.079 1.335-.125 1.999s-.069 1.331-.069 2c0 .529-.005 1.057-.014 1.581a92.252 92.252 0 00-.014 1.582v3.142c0 1.045.009 2.093.028 3.143a165.254 165.254 0 005.288-6.612 218.186 218.186 0 004.981-6.834c.474.093.901.139 1.282.139s.808-.046 1.282-.139c-.075.994-.107 1.985-.098 2.975s.014 1.977.014 2.961c0 2.285.035 4.555.104 6.807.074 2.254.211 4.513.415 6.78zm-12.526-24.204c.437.669.969 1.136 1.596 1.4s1.321.397 2.083.397c.743 0 1.433-.133 2.069-.397.636-.265 1.154-.731 1.554-1.4l.919.488c-.399.976-1.003 1.719-1.812 2.229-.808.511-1.728.766-2.759.766-1.041 0-1.956-.255-2.745-.766s-1.394-1.254-1.812-2.229l.907-.488zM190.503 107.397c.752.019 1.505.051 2.257.097a36.4 36.4 0 002.271.07c1.087 0 2.162-.019 3.226-.056 1.063-.037 2.139-.065 3.226-.084a4.953 4.953 0 00-.111 1.045c0 .354.019.711.056 1.073.019.056.028.111.028.167s.009.111.028.167a414.599 414.599 0 00-3.253-.265 29.434 29.434 0 00-3.254-.069 72.473 72.473 0 00-.056 2.967c0 .529-.005 1.038-.014 1.526a89.076 89.076 0 00-.014 1.637v5.226a70.8 70.8 0 00.111 3.874c.037.725.065 1.439.083 2.146a65.07 65.07 0 00-1.184-.098 16.738 16.738 0 00-2.341 0c-.391.028-.776.061-1.157.098.046-.27.07-.541.07-.815 0-.273.009-.545.028-.814.037-.893.065-1.774.083-2.647l.056-2.689c0-.725.004-1.447.014-2.167.009-.72.014-1.442.014-2.167v-3.344c0-.734-.028-1.482-.083-2.244s-.083-1.514-.083-2.257v-.377zM224.962 117.137c0 1.44-.283 2.827-.85 4.16a9.408 9.408 0 01-2.508 3.448c-1.143.994-2.372 1.691-3.686 2.09-1.315.399-2.71.6-4.188.6-1.394 0-2.785-.223-4.173-.669s-2.589-1.166-3.602-2.16c-1.041-1.021-1.765-2.144-2.174-3.364-.409-1.222-.613-2.553-.613-3.992 0-1.486.281-2.887.843-4.201s1.41-2.455 2.543-3.421c1.143-.976 2.376-1.658 3.7-2.049 1.324-.39 2.71-.585 4.159-.585 1.161 0 2.315.153 3.463.46a9.954 9.954 0 013.156 1.463 9.37 9.37 0 011.839 1.609c.501.581.915 1.279 1.24 2.097.307.725.525 1.464.655 2.216.131.752.196 1.517.196 2.298zm-11.091 8.611c1.179 0 2.192-.294 3.038-.885.845-.59 1.542-1.386 2.09-2.39.502-.9.832-1.855.989-2.863.158-1.008.237-2.014.237-3.017 0-.92-.109-1.849-.328-2.787s-.569-1.788-1.052-2.55-1.105-1.387-1.867-1.874c-.762-.488-1.677-.731-2.745-.731-.641 0-1.21.067-1.707.202-.497.135-1.001.393-1.512.773-.381.27-.757.627-1.128 1.072-.372.446-.66.878-.864 1.296-.437.911-.732 1.9-.885 2.968a21.909 21.909 0 00-.229 3.107c0 .93.109 1.852.327 2.767s.564 1.739 1.038 2.473a5.458 5.458 0 001.854 1.771c.76.445 1.675.668 2.744.668zM243.23 126.069c-.855.437-1.768.75-2.738.94s-1.939.285-2.905.285c-.725 0-1.354-.034-1.888-.104a24.46 24.46 0 01-1.86-.327 3.558 3.558 0 01-.725-.23 51.755 51.755 0 01-.871-.369 12.37 12.37 0 01-1.54-.794c-.381-.27-.752-.585-1.115-.947s-.674-.725-.934-1.087a8.841 8.841 0 01-1.373-2.669 10.078 10.078 0 01-.425-2.975c0-1.616.237-3.096.71-4.438.474-1.342 1.328-2.565 2.564-3.671 1.105-.948 2.371-1.621 3.797-2.021s2.854-.6 4.285-.6c.947 0 1.944.118 2.989.355s1.99.573 2.835 1.01c-.139.493-.255.979-.348 1.457-.093.479-.2.964-.321 1.456h-.39a5.98 5.98 0 00-2.076-1.826 5.536 5.536 0 00-2.661-.683c-1.18 0-2.193.251-3.038.753a6.419 6.419 0 00-2.083 1.965c-.543.808-.938 1.726-1.185 2.752s-.369 2.055-.369 3.086.123 2.046.369 3.045.681 1.916 1.303 2.752c.613.799 1.377 1.402 2.292 1.812s1.865.613 2.85.613c.892 0 1.805-.2 2.738-.6s1.725-.905 2.375-1.519l.362.14-.624 2.439zM245 107.397c.437.037.88.069 1.331.097.45.028.894.042 1.331.042.854 0 1.7-.056 2.536-.167.437.873.882 1.744 1.337 2.612.455.869.911 1.73 1.366 2.585.213.418.453.832.718 1.24.265.409.503.822.717 1.24a34.269 34.269 0 00.655 1.212c.148.261.29.495.425.704s.23.342.286.397c.074 0 .211-.186.411-.558.2-.371.443-.857.731-1.456.288-.6.604-1.266.948-2l1.017-2.174c.307-.631.587-1.261.843-1.888s.537-1.256.843-1.888c.213.056.43.093.648.111s.43.027.634.027a6 6 0 00.704-.042 15.9 15.9 0 00.704-.097c-.493.938-.974 1.83-1.442 2.675-.469.846-.936 1.695-1.4 2.55-.465.855-.936 1.74-1.415 2.655a100.465 100.465 0 00-1.797 3.622l-.488 1.024c-.172.362-.327.697-.467 1.003-.139.307-.228.507-.265.6a52.982 52.982 0 00-2.035 5.392c-.437-.037-.765-.064-.982-.084a7.487 7.487 0 00-.648-.027c-.149 0-.323.009-.522.027l-.843.084a51.05 51.05 0 001.386-2.41 34.701 34.701 0 001.233-2.551c-.111-.343-.328-.806-.648-1.386-.32-.581-.644-1.168-.968-1.763a123.956 123.956 0 00-1.805-3.163 216.682 216.682 0 00-1.679-2.794 320.597 320.597 0 00-1.651-2.669c-.553-.877-1.136-1.807-1.749-2.782zM263.922 128.201a9.66 9.66 0 00.111-.955c.019-.292.028-.583.028-.87 0-.27-.014-.532-.042-.788a13.163 13.163 0 00-.098-.717h1.254l1.31-3.066c1.031-2.434 2.05-4.849 3.059-7.245a165.1 165.1 0 002.877-7.33c.195.037.378.07.55.098.172.028.351.042.537.042.195 0 .376-.014.543-.042.167-.027.348-.061.543-.098l.195.488a379.632 379.632 0 013.414 8.541 309.81 309.81 0 003.441 8.542l1.199.07a5.847 5.847 0 00-.181 1.505c0 .594.06 1.202.181 1.825h-.432a3.02 3.02 0 00-1.226-.899c-.493-.199-1.096-.341-1.812-.425-.715-.083-1.554-.125-2.515-.125h-3.323c-1.254 0-2.381.009-3.379.027s-1.879.07-2.64.153c-.762.084-1.405.226-1.93.425-.525.2-.936.481-1.233.844h-.431zm3.874-3.456c.809.037 1.605.067 2.39.091.785.023 1.656.035 2.613.035.854 0 1.605-.012 2.25-.035s1.219-.054 1.721-.091c-.213-.854-.474-1.7-.78-2.536s-.646-1.788-1.017-2.856c-.232-.641-.453-1.247-.662-1.818-.209-.571-.418-1.124-.627-1.658l-.613-1.574c-.2-.516-.416-1.048-.648-1.596l-.648 1.54c-.209.497-.418 1.003-.627 1.519s-.425 1.043-.648 1.581a35.9 35.9 0 00-.669 1.756c-.418 1.105-.813 2.104-1.185 2.996s-.655 1.773-.85 2.646zM283.611 126.696l2.118-4.892a634.682 634.682 0 003.065-7.231 178.274 178.274 0 002.871-7.344c.186.037.364.07.537.098.172.028.355.042.55.042.186 0 .364-.014.537-.042.171-.027.351-.061.536-.098l.209.488c1.273 3.121 2.49 6.24 3.651 9.356a148.366 148.366 0 003.818 9.273l.153.32v.251a56.133 56.133 0 00-1.212-.098 17.756 17.756 0 00-2.41 0c-.4.028-.799.061-1.199.098a189.37 189.37 0 00-.934-2.919 55.977 55.977 0 00-1.045-2.905l-1.567-.056a42.556 42.556 0 00-1.568-.028 109.646 109.646 0 00-3.484.056l-.14.404c-.325.91-.65 1.81-.975 2.696s-.599 1.805-.822 2.752a6.958 6.958 0 00-1.337-.14c-.428 0-.878.047-1.352.14v-.221zm10.59-7.343c-.399-1.124-.813-2.236-1.24-3.337s-.859-2.204-1.296-3.31a888.668 888.668 0 01-1.358 3.17 45.213 45.213 0 00-1.247 3.226l-.084.251h5.225zM303.872 107.397c.882.056 1.77.083 2.661.083.604 0 1.201-.019 1.791-.056s1.191-.056 1.805-.056c.492 0 1.01.01 1.554.028s1.052.074 1.526.167c1.18.27 2.123.822 2.829 1.658s1.059 1.862 1.059 3.079c0 .846-.107 1.605-.321 2.278-.214.674-.613 1.313-1.198 1.916a5.822 5.822 0 01-.927.815 4.862 4.862 0 01-.898.487 5.677 5.677 0 01-.989.3c-.354.074-.748.153-1.185.236-.344.057-.69.094-1.038.112-.349.019-.704.027-1.066.027h-1.227c-.019.66-.014 1.319.014 1.979.028.66.051 1.319.07 1.979l.056 2.258c.019.743.056 1.486.111 2.229a64.44 64.44 0 00-1.185-.098c-.39-.027-.785-.042-1.184-.042-.381 0-.771.015-1.17.042-.4.028-.79.061-1.171.098.019-.27.037-.522.056-.76a141.59 141.59 0 00.16-2.306c.032-.521.049-1.04.049-1.561 0-.725.004-1.447.014-2.167s.014-1.442.014-2.167c0-1.272-.014-2.543-.042-3.811l-.083-3.839c-.019-.492-.028-.978-.028-1.456s-.02-.959-.057-1.452zm4.403 5.058c-.019.399-.023.799-.014 1.198s.014.799.014 1.198v1.024c0 .338-.009.681-.028 1.024.316-.019.632-.032.948-.042.316-.009.627-.061.934-.153a2.847 2.847 0 001.157-.558c.315-.26.569-.566.759-.919.19-.354.323-.734.397-1.143.074-.409.111-.832.111-1.269 0-.622-.086-1.229-.257-1.818-.172-.59-.514-1.094-1.024-1.512-.27-.214-.562-.349-.878-.404s-.641-.084-.975-.084l-1.059.028-.085 3.43zM335.126 126.069c-.855.437-1.768.75-2.738.94s-1.939.285-2.905.285c-.725 0-1.354-.034-1.888-.104a24.46 24.46 0 01-1.86-.327 3.558 3.558 0 01-.725-.23 51.755 51.755 0 01-.871-.369 12.37 12.37 0 01-1.54-.794c-.381-.27-.752-.585-1.115-.947s-.674-.725-.934-1.087a8.841 8.841 0 01-1.373-2.669 10.078 10.078 0 01-.425-2.975c0-1.616.237-3.096.71-4.438.474-1.342 1.328-2.565 2.564-3.671 1.105-.948 2.371-1.621 3.797-2.021s2.854-.6 4.285-.6c.947 0 1.944.118 2.989.355s1.99.573 2.835 1.01c-.139.493-.255.979-.348 1.457-.093.479-.2.964-.321 1.456h-.39a5.98 5.98 0 00-2.076-1.826 5.536 5.536 0 00-2.661-.683c-1.18 0-2.193.251-3.038.753a6.419 6.419 0 00-2.083 1.965c-.543.808-.938 1.726-1.185 2.752s-.369 2.055-.369 3.086.123 2.046.369 3.045.681 1.916 1.303 2.752c.613.799 1.377 1.402 2.292 1.812s1.865.613 2.85.613c.892 0 1.805-.2 2.738-.6s1.725-.905 2.375-1.519l.362.14-.624 2.439zM346.859 111.591a301.913 301.913 0 00-.084 7.106c0 .613.005 1.225.014 1.833s.014 1.215.014 1.818c0 .762.019 1.523.056 2.285.037.762.064 1.523.083 2.285a48.495 48.495 0 00-1.17-.098c-.4-.027-.79-.042-1.171-.042s-.771.019-1.17.056c-.399.038-.79.065-1.17.084.037-.669.077-1.345.119-2.027.042-.683.072-1.358.09-2.027.037-1.616.07-3.229.098-4.835.028-1.607.042-3.219.042-4.836a81.3 81.3 0 00-.084-3.679 28.18 28.18 0 00-2.494.112 70.873 70.873 0 00-2.758.278c.093-.362.139-.723.139-1.08s-.019-.718-.056-1.08a.58.58 0 01-.028-.188c0-.07-.019-.123-.056-.16.362.019.72.027 1.073.027s.706.01 1.059.028c.882.019 1.751.041 2.606.069a79.085 79.085 0 004.061.028c.488-.01.978-.015 1.47-.015.743 0 1.481-.022 2.215-.069s1.472-.069 2.216-.069c-.047.194-.079.388-.098.578s-.028.378-.028.564c0 .232.009.462.028.689s.051.453.098.676a43.372 43.372 0 00-2.536-.307 22.625 22.625 0 00-2.522-.084l-.056 2.08zM363.217 116.621a5.086 5.086 0 011.881.313 5.462 5.462 0 011.686.969c.548.474.945.982 1.191 1.526.246.543.369 1.177.369 1.901 0 .716-.128 1.398-.383 2.049s-.629 1.24-1.122 1.77c-.455.492-.992.853-1.609 1.08s-1.243.411-1.874.55a5.554 5.554 0 01-.941.111c-.376.02-.699.028-.968.028-.706 0-1.405-.014-2.097-.042a53.767 53.767 0 00-2.097-.042c-.418 0-.831.01-1.24.028l-1.24.056c.093-.669.148-1.326.167-1.972l.056-1.972a286.561 286.561 0 00.112-7.845c0-1.291-.028-2.58-.084-3.867a255.163 255.163 0 01-.139-3.895c1.087.056 2.16.084 3.219.084.688 0 1.373-.01 2.055-.028a73.927 73.927 0 012.056-.027c.725 0 1.428.071 2.111.216.683.144 1.287.388 1.812.731s.95.794 1.275 1.352.488 1.259.488 2.104c0 .66-.13 1.257-.39 1.791s-.608.992-1.045 1.372c-.437.382-.936.69-1.498.927a6.521 6.521 0 01-1.749.467v.265zm-4.054 8.611c.232.02.467.033.704.042.237.01.467.015.69.015.52 0 1.003-.101 1.449-.3.446-.2.813-.518 1.101-.955.511-.78.767-1.616.767-2.508 0-1.412-.323-2.44-.969-3.086-.646-.646-1.586-.969-2.822-.969a7.983 7.983 0 00-.947.056 74.398 74.398 0 00-.028 2.056v2.055c0 .613.009 1.215.028 1.805s.027 1.186.027 1.789zm0-9.363c.148 0 .29.005.425.014a5.581 5.581 0 001.665-.125c.399-.093.789-.293 1.17-.6a3.25 3.25 0 00.94-1.352c.19-.52.286-1.059.286-1.616a3.56 3.56 0 00-.063-.606 6.133 6.133 0 00-.174-.718c-.075-.241-.169-.467-.286-.676s-.239-.369-.369-.48a3.325 3.325 0 00-2.174-.767 8.046 8.046 0 00-1.338.112 67.519 67.519 0 00-.097 5.336c.01.494.015.986.015 1.478zM382.503 115.451c-.037.223-.07.443-.098.662a5.3 5.3 0 00-.042.676c0 .186.014.364.042.536s.061.355.098.551c-.855-.056-1.703-.104-2.543-.146a91.904 91.904 0 00-2.543-.091c-.223 0-.453-.005-.69-.014-.237-.01-.472-.014-.704-.014 0 .612-.005 1.219-.014 1.818a120.029 120.029 0 000 3.609c.01.59.014 1.187.014 1.791 1.105 0 2.204-.033 3.295-.098a79.664 79.664 0 003.295-.265 4.946 4.946 0 00-.111 1.045c0 .353.019.706.056 1.059.019.065.028.126.028.182s.009.111.028.167a80.387 80.387 0 01-2.578-.098 48.745 48.745 0 00-2.592-.069c-.548 0-1.108.014-1.679.042-.571.027-1.131.041-1.679.041-.836 0-1.686.028-2.55.084.046-.27.07-.541.07-.815 0-.273.009-.545.028-.814.037-.893.065-1.774.083-2.647l.056-2.689c0-.725.004-1.447.014-2.167.009-.72.014-1.442.014-2.167v-3.344c0-.734-.028-1.482-.083-2.244s-.083-1.514-.083-2.257v-.376c.752.019 1.505.051 2.257.097a36.4 36.4 0 002.271.07c1.087 0 2.162-.019 3.226-.056 1.063-.037 2.139-.065 3.226-.084a4.953 4.953 0 00-.111 1.045c0 .354.019.711.056 1.073.019.056.028.111.028.167s.009.111.028.167a414.599 414.599 0 00-3.253-.265 29.434 29.434 0 00-3.254-.069 72.473 72.473 0 00-.056 2.967c0 .529-.005 1.057-.014 1.582a92.135 92.135 0 00-.014 1.581l6.478-.223zM385.75 107.397c.381.037.766.069 1.156.097a16.16 16.16 0 002.327 0c.399-.027.79-.06 1.17-.097-.019.668-.051 1.33-.098 1.985s-.079 1.316-.097 1.985v3.846c.725.019 1.456.045 2.194.077a49.276 49.276 0 004.369 0c.724-.032 1.449-.059 2.173-.077 0-.659-.007-1.328-.021-2.006a97.374 97.374 0 01-.021-2.007c0-.632-.015-1.266-.042-1.902-.028-.636-.061-1.27-.098-1.901.381.037.771.069 1.17.097a16.744 16.744 0 002.356 0c.39-.027.785-.06 1.185-.097-.037.65-.084 1.298-.14 1.943s-.093 1.294-.111 1.944l-.056 3.323a190.944 190.944 0 00-.028 3.323c0 1.505.014 3.003.042 4.493a82.03 82.03 0 00.209 4.494 55.038 55.038 0 00-1.143-.098 16.167 16.167 0 00-1.143-.042c-.437 0-.864.015-1.282.042-.418.028-.836.061-1.254.098.037-.669.079-1.326.125-1.972.047-.646.089-1.303.126-1.972.037-.678.056-1.36.056-2.049 0-.687.009-1.374.028-2.062 0-.224.007-.448.021-.676s.021-.458.021-.69l-2.188-.056a84.504 84.504 0 00-4.369 0l-2.181.056v3.456c0 1.013.019 2.007.056 2.982.037.975.083 1.969.139 2.981a60.148 60.148 0 00-1.128-.098 15.58 15.58 0 00-1.129-.042c-.418 0-.836.015-1.254.042-.418.028-.836.061-1.254.098.158-1.746.26-3.485.307-5.219.046-1.732.07-3.485.07-5.26 0-1.514-.014-3.023-.042-4.528s-.101-3.006-.221-4.511zM407.375 107.397c.381.037.767.069 1.156.097a16.154 16.154 0 002.327 0c.399-.027.789-.06 1.171-.097-.02.668-.052 1.33-.098 1.985a45.95 45.95 0 00-.098 1.985v3.846c.725.019 1.456.045 2.194.077s1.471.049 2.194.049c.725 0 1.449-.017 2.174-.049s1.449-.059 2.174-.077c0-.659-.007-1.328-.021-2.006a97.374 97.374 0 01-.021-2.007c0-.632-.015-1.266-.042-1.902-.028-.636-.061-1.27-.098-1.901.381.037.771.069 1.17.097a16.744 16.744 0 002.356 0c.39-.027.785-.06 1.185-.097-.037.65-.084 1.298-.14 1.943s-.093 1.294-.111 1.944l-.056 3.323a190.944 190.944 0 00-.028 3.323c0 1.505.014 3.003.042 4.493a82.03 82.03 0 00.209 4.494 55.038 55.038 0 00-1.143-.098 16.167 16.167 0 00-1.143-.042c-.437 0-.864.015-1.282.042-.418.028-.836.061-1.254.098.037-.669.079-1.326.125-1.972.047-.646.089-1.303.126-1.972.037-.678.056-1.36.056-2.049 0-.687.009-1.374.028-2.062 0-.224.007-.448.021-.676s.021-.458.021-.69l-2.188-.056a84.504 84.504 0 00-4.369 0l-2.181.056v3.456c0 1.013.019 2.007.056 2.982.037.975.084 1.969.14 2.981a60.989 60.989 0 00-1.129-.098 15.58 15.58 0 00-1.129-.042c-.418 0-.836.015-1.254.042-.418.028-.836.061-1.254.098.157-1.746.26-3.485.307-5.219.046-1.732.069-3.485.069-5.26 0-1.514-.014-3.023-.042-4.528a70.337 70.337 0 00-.22-4.511zM429.182 107.397c.381.037.767.069 1.157.097a16.133 16.133 0 002.319 0c.404-.027.792-.06 1.164-.097-.037.854-.084 1.707-.14 2.557s-.083 1.702-.083 2.557c0 .549-.005.985-.015 1.31-.009.326-.014.598-.014.815v1.26a27.474 27.474 0 011.742-.056c.492 0 1.01.01 1.554.028a8.68 8.68 0 011.525.181c1.18.261 2.122.811 2.829 1.651.705.841 1.059 1.87 1.059 3.087 0 .836-.104 1.591-.313 2.264-.209.674-.611 1.317-1.205 1.931-.669.678-1.459 1.17-2.369 1.477s-1.854.46-2.829.46a41.79 41.79 0 01-1.943-.042c-.6-.027-1.252-.042-1.958-.042-.418 0-.831.01-1.24.028l-1.24.056a12.99 12.99 0 00.126-1.972c-.01-.646-.005-1.303.014-1.972.056-2.62.084-5.234.084-7.845a139.846 139.846 0 00-.195-7.19l-.029-.543zm4.278 13.53c-.019.4-.023.8-.014 1.199s.014.799.014 1.198v.996c0 .32-.01.652-.028.996.325-.019.644-.032.955-.042.311-.009.62-.06.927-.153.929-.25 1.564-.731 1.908-1.441.344-.711.516-1.503.516-2.376a6.52 6.52 0 00-.258-1.833c-.172-.59-.513-1.094-1.023-1.512a1.958 1.958 0 00-.871-.404 5.551 5.551 0 00-.982-.083l-1.06.027-.084 3.428zm15.899-13.53c-.046.632-.088 1.266-.125 1.901a68.195 68.195 0 00-.084 1.902l-.111 2.794a70.569 70.569 0 00-.056 2.794c0 .984.019 1.967.056 2.946l.111 2.962c.019.706.047 1.409.084 2.11.037.702.079 1.405.125 2.111a60.148 60.148 0 00-1.128-.098 15.58 15.58 0 00-1.129-.042c-.437 0-.859.015-1.269.042a62.92 62.92 0 00-1.239.098 90.94 90.94 0 00.292-5.219c.047-1.732.07-3.485.07-5.26v-1.533a114.16 114.16 0 00-.057-3.679c-.019-.649-.041-1.288-.069-1.915a44.678 44.678 0 00-.125-1.916c.381.037.766.069 1.156.097a16.154 16.154 0 002.327 0c.4-.025.79-.057 1.171-.095zM471.013 126.919a7.154 7.154 0 00-1.213-.125c-.427-.01-.841-.015-1.24-.015-.381 0-.762.01-1.143.028s-.762.056-1.143.111c.093-1.031.148-2.06.168-3.087.018-1.025.027-2.06.027-3.1v-3.999c0-.613-.01-1.21-.027-1.791-.02-.58-.038-1.163-.057-1.749-1.857 2.184-3.615 4.44-5.273 6.772s-3.343 4.649-5.052 6.953a5.796 5.796 0 00-1.198-.14c-.214 0-.408.015-.585.042-.177.028-.362.061-.558.098v-8.932c0-1.765-.051-3.523-.153-5.274l-.307-5.288a23.789 23.789 0 002.341.111c.381 0 .771-.014 1.171-.042.399-.027.789-.06 1.171-.097-.038.668-.079 1.335-.126 1.999s-.069 1.331-.069 2c0 .529-.005 1.057-.014 1.581-.01.525-.015 1.052-.015 1.582v3.142c0 1.045.01 2.093.028 3.143a165.254 165.254 0 005.288-6.612 216.585 216.585 0 004.981-6.834c.474.093.9.139 1.282.139.381 0 .808-.046 1.281-.139a36.11 36.11 0 00-.098 2.975c.01.989.015 1.977.015 2.961 0 2.285.034 4.555.104 6.807.072 2.254.209 4.513.414 6.78zm-12.527-24.204c.437.669.969 1.136 1.596 1.4s1.321.397 2.083.397c.743 0 1.433-.133 2.069-.397.636-.265 1.154-.731 1.554-1.4l.92.488c-.399.976-1.004 1.719-1.812 2.229-.809.511-1.729.766-2.76.766-1.04 0-1.955-.255-2.744-.766-.79-.511-1.394-1.254-1.812-2.229l.906-.488zM480.878 107.397c.437.037.88.069 1.331.097.45.028.894.042 1.33.042.855 0 1.7-.056 2.536-.167.437.873.883 1.744 1.338 2.612.455.869.91 1.73 1.365 2.585.214.418.453.832.718 1.24.265.409.504.822.718 1.24a26.71 26.71 0 00.655 1.212c.148.261.29.495.425.704s.229.342.285.397c.075 0 .212-.186.411-.558.2-.371.444-.857.732-1.456.287-.6.604-1.266.947-2l1.017-2.174c.307-.631.588-1.261.844-1.888.255-.627.536-1.256.843-1.888.214.056.43.093.647.111.219.019.43.027.635.027.231 0 .467-.014.703-.042a15.9 15.9 0 00.704-.097c-.493.938-.974 1.83-1.442 2.675-.469.846-.936 1.695-1.4 2.55-.465.855-.936 1.74-1.414 2.655a100.465 100.465 0 00-1.797 3.622l-.487 1.024c-.173.362-.328.697-.467 1.003-.14.307-.229.507-.265.6a47.747 47.747 0 00-1.102 2.696 55.013 55.013 0 00-.934 2.696c-.437-.037-.764-.064-.982-.084a7.448 7.448 0 00-.647-.027c-.148 0-.323.009-.522.027l-.843.084c.287-.474.541-.901.759-1.282.219-.381.428-.757.627-1.128.2-.372.399-.762.6-1.171.199-.409.411-.868.634-1.38-.111-.343-.327-.806-.647-1.386a416.62 416.62 0 01-.969-1.763 123.956 123.956 0 00-1.805-3.163 216.682 216.682 0 00-1.679-2.794 349.632 349.632 0 00-1.651-2.669c-.554-.877-1.137-1.807-1.751-2.782zM501.222 107.397c.381.037.767.069 1.156.097a16.154 16.154 0 002.327 0c.399-.027.789-.06 1.171-.097-.02.668-.052 1.33-.098 1.985a45.95 45.95 0 00-.098 1.985v3.846c.725.019 1.456.045 2.194.077s1.471.049 2.194.049c.725 0 1.449-.017 2.174-.049s1.449-.059 2.174-.077c0-.659-.007-1.328-.021-2.006a97.374 97.374 0 01-.021-2.007c0-.632-.015-1.266-.042-1.902-.028-.636-.061-1.27-.098-1.901.381.037.771.069 1.17.097a16.744 16.744 0 002.356 0c.39-.027.785-.06 1.185-.097-.037.65-.084 1.298-.14 1.943s-.093 1.294-.111 1.944l-.056 3.323a190.944 190.944 0 00-.028 3.323c0 1.505.014 3.003.042 4.493a82.03 82.03 0 00.209 4.494 55.038 55.038 0 00-1.143-.098 16.167 16.167 0 00-1.143-.042c-.437 0-.864.015-1.282.042-.418.028-.836.061-1.254.098.037-.669.079-1.326.125-1.972.047-.646.089-1.303.126-1.972.037-.678.056-1.36.056-2.049 0-.687.009-1.374.028-2.062 0-.224.007-.448.021-.676s.021-.458.021-.69l-2.188-.056a84.504 84.504 0 00-4.369 0l-2.181.056v3.456c0 1.013.019 2.007.056 2.982.037.975.084 1.969.14 2.981a60.989 60.989 0 00-1.129-.098 15.58 15.58 0 00-1.129-.042c-.418 0-.836.015-1.254.042-.418.028-.836.061-1.254.098.157-1.746.26-3.485.307-5.219.046-1.732.069-3.485.069-5.26 0-1.514-.014-3.023-.042-4.528a71.82 71.82 0 00-.22-4.511zM535.835 126.919c.093-1.217.148-2.434.168-3.65.018-1.217.027-2.435.027-3.651v-2.605c0-.641-.01-1.275-.027-1.902-.02-.627-.038-1.266-.057-1.916a60.866 60.866 0 00-1.595 1.938c-.591.743-1.206 1.542-1.847 2.396-1.087 1.431-2.211 2.954-3.372 4.57s-2.332 3.224-3.512 4.821a6.622 6.622 0 00-1.017-.14 3.668 3.668 0 00-1.004.084c-.064.019-.12.027-.167.027s-.098.01-.153.028V117.987c0-.91-.019-1.805-.056-2.683l-.111-2.683a59.421 59.421 0 00-.084-1.818c-.037-.599-.079-1.2-.125-1.805a24.96 24.96 0 01-.042-.787 22.406 22.406 0 00-.042-.787c.121 0 .286.01.495.028s.437.032.683.041l.683.028c.209.01.369.014.48.014.112 0 .274-.004.488-.014l.689-.028c.246-.009.474-.022.683-.041s.369-.037.481-.056l-.028.543-.111 1.728a26.958 26.958 0 00-.056 1.729c0 .529-.005 1.057-.014 1.581-.01.525-.015 1.052-.015 1.582v3.142c0 1.045.01 2.093.028 3.143.725-.854 1.4-1.677 2.027-2.467.627-.789 1.242-1.574 1.847-2.354a151.51 151.51 0 003.155-4.132 268.504 268.504 0 003.24-4.493c.474.093.9.139 1.282.139.381 0 .808-.046 1.281-.139a16.517 16.517 0 00-.056 1.337c0 .78-.005 1.552-.014 2.313a219.153 219.153 0 00.09 9.092c.069 2.253.206 4.513.411 6.779-.112-.019-.281-.037-.509-.056s-.467-.032-.718-.042l-.718-.027c-.228-.01-.397-.015-.509-.015-.074 0-.211.005-.411.015-.199.009-.408.019-.627.027-.218.01-.427.023-.627.042a4.966 4.966 0 01-.425.027l-.189.029zM553.099 116.621a5.093 5.093 0 011.881.313 5.455 5.455 0 011.687.969c.548.474.945.982 1.191 1.526.246.543.369 1.177.369 1.901 0 .716-.128 1.398-.383 2.049-.256.65-.63 1.24-1.122 1.77-.455.492-.991.853-1.609 1.08s-1.242.411-1.874.55a5.554 5.554 0 01-.94.111c-.377.02-.699.028-.969.028-.706 0-1.405-.014-2.097-.042a53.819 53.819 0 00-2.098-.042c-.418 0-.831.01-1.24.028l-1.24.056c.093-.669.148-1.326.168-1.972l.056-1.972a286.54 286.54 0 00.111-7.845c0-1.291-.028-2.58-.084-3.867a242.93 242.93 0 01-.139-3.895c1.086.056 2.159.084 3.219.084.687 0 1.372-.01 2.055-.028s1.368-.027 2.056-.027c.725 0 1.428.071 2.111.216a5.26 5.26 0 011.811.731c.525.344.95.794 1.275 1.352s.487 1.259.487 2.104c0 .66-.13 1.257-.39 1.791s-.608.992-1.045 1.372a5.52 5.52 0 01-1.498.927 6.541 6.541 0 01-1.749.467v.265zm-4.055 8.611c.232.02.467.033.704.042.236.01.467.015.689.015.52 0 1.003-.101 1.449-.3.445-.2.813-.518 1.101-.955.511-.78.767-1.616.767-2.508 0-1.412-.323-2.44-.969-3.086-.646-.646-1.586-.969-2.821-.969a7.983 7.983 0 00-.948.056 74.388 74.388 0 00-.027 2.056v2.055c0 .613.009 1.215.027 1.805s.028 1.186.028 1.789zm0-9.363c.148 0 .29.005.425.014a5.587 5.587 0 001.665-.125c.4-.093.79-.293 1.171-.6a3.25 3.25 0 00.94-1.352c.19-.52.286-1.059.286-1.616a3.56 3.56 0 00-.063-.606 5.939 5.939 0 00-.174-.718c-.074-.241-.17-.467-.286-.676s-.239-.369-.369-.48a3.323 3.323 0 00-2.174-.767 8.022 8.022 0 00-1.337.112 67.548 67.548 0 00-.097 5.336c.009.494.013.986.013 1.478zM572.384 115.451c-.037.223-.069.443-.097.662a5.3 5.3 0 00-.042.676c0 .186.014.364.042.536.027.172.06.355.097.551-.854-.056-1.702-.104-2.543-.146s-1.688-.072-2.543-.091c-.223 0-.452-.005-.689-.014-.237-.01-.472-.014-.704-.014 0 .612-.004 1.219-.014 1.818a120.029 120.029 0 000 3.609c.01.59.014 1.187.014 1.791 1.105 0 2.204-.033 3.296-.098a79.851 79.851 0 003.296-.265 4.882 4.882 0 00-.112 1.045c0 .353.019.706.056 1.059.019.065.028.126.028.182s.009.111.028.167a80.277 80.277 0 01-2.578-.098 48.745 48.745 0 00-2.592-.069c-.549 0-1.107.014-1.679.042a35.65 35.65 0 01-1.68.041c-.836 0-1.686.028-2.55.084.046-.27.069-.541.069-.815 0-.273.01-.545.028-.814.037-.893.064-1.774.083-2.647l.057-2.689c0-.725.004-1.447.014-2.167.009-.72.014-1.442.014-2.167v-3.344c0-.734-.027-1.482-.084-2.244a30.776 30.776 0 01-.083-2.257v-.376c.752.019 1.505.051 2.257.097.753.047 1.51.07 2.271.07 1.087 0 2.162-.019 3.226-.056s2.14-.065 3.227-.084a4.889 4.889 0 00-.112 1.045c0 .354.019.711.056 1.073.019.056.028.111.028.167s.009.111.028.167a414.845 414.845 0 00-3.254-.265 29.429 29.429 0 00-3.254-.069 80.4 80.4 0 00-.056 2.967c0 .529-.005 1.057-.014 1.582-.01.524-.015 1.052-.015 1.581l6.48-.223zM575.603 107.397c.883.056 1.77.083 2.662.083.604 0 1.2-.019 1.79-.056s1.191-.056 1.805-.056c.492 0 1.01.01 1.554.028a9.67 9.67 0 011.525.167c1.18.27 2.123.822 2.829 1.658s1.059 1.862 1.059 3.079c0 .846-.106 1.605-.32 2.278-.214.674-.613 1.313-1.198 1.916a5.822 5.822 0 01-.927.815 4.862 4.862 0 01-.898.487 5.677 5.677 0 01-.989.3c-.354.074-.748.153-1.185.236-.344.057-.689.094-1.038.112s-.704.027-1.066.027h-1.226c-.019.66-.015 1.319.014 1.979.028.66.051 1.319.069 1.979l.056 2.258c.019.743.056 1.486.112 2.229-.4-.037-.795-.069-1.185-.098a17.17 17.17 0 00-1.185-.042c-.381 0-.771.015-1.171.042a43.88 43.88 0 00-1.17.098c.019-.27.037-.522.056-.76a171.894 171.894 0 00.16-2.306c.032-.521.049-1.04.049-1.561 0-.725.005-1.447.014-2.167a173.312 173.312 0 00-.027-5.978c-.028-1.269-.057-2.548-.084-3.839-.019-.492-.028-.978-.028-1.456s-.02-.959-.057-1.452zm4.403 5.058c-.019.399-.023.799-.014 1.198.009.399.014.799.014 1.198v1.024c0 .338-.009.681-.027 1.024.315-.019.631-.032.947-.042.315-.009.627-.061.934-.153a2.836 2.836 0 001.156-.558c.316-.26.569-.566.76-.919.19-.354.322-.734.397-1.143.074-.409.111-.832.111-1.269 0-.622-.086-1.229-.258-1.818s-.514-1.094-1.024-1.512c-.27-.214-.563-.349-.878-.404s-.641-.084-.976-.084l-1.059.028-.083 3.43zM606.858 126.069c-.854.437-1.767.75-2.737.94s-1.939.285-2.905.285c-.725 0-1.354-.034-1.889-.104a24.633 24.633 0 01-1.86-.327 3.597 3.597 0 01-.725-.23 55.526 55.526 0 01-.87-.369 11.954 11.954 0 01-1.54-.794c-.381-.27-.753-.585-1.115-.947s-.673-.725-.934-1.087a8.815 8.815 0 01-1.372-2.669 10.11 10.11 0 01-.425-2.975c0-1.616.236-3.096.711-4.438.474-1.342 1.328-2.565 2.563-3.671 1.105-.948 2.371-1.621 3.797-2.021s2.854-.6 4.285-.6c.947 0 1.943.118 2.988.355a11.86 11.86 0 012.836 1.01c-.14.493-.256.979-.349 1.457s-.199.964-.32 1.456h-.39a5.98 5.98 0 00-2.076-1.826 5.543 5.543 0 00-2.662-.683c-1.18 0-2.192.251-3.037.753a6.409 6.409 0 00-2.083 1.965c-.544.808-.938 1.726-1.185 2.752s-.369 2.055-.369 3.086.123 2.046.369 3.045.68 1.916 1.303 2.752c.613.799 1.377 1.402 2.292 1.812s1.865.613 2.85.613c.892 0 1.805-.2 2.738-.6s1.726-.905 2.376-1.519l.362.14-.627 2.439zM623.467 126.919c.093-1.217.148-2.434.168-3.65.018-1.217.027-2.435.027-3.651v-2.605c0-.641-.01-1.275-.027-1.902-.02-.627-.038-1.266-.057-1.916a60.866 60.866 0 00-1.595 1.938c-.591.743-1.206 1.542-1.847 2.396-1.087 1.431-2.211 2.954-3.372 4.57s-2.332 3.224-3.512 4.821a6.622 6.622 0 00-1.017-.14 3.668 3.668 0 00-1.004.084c-.064.019-.12.027-.167.027s-.098.01-.153.028V117.987c0-.91-.019-1.805-.056-2.683l-.111-2.683a59.421 59.421 0 00-.084-1.818c-.037-.599-.079-1.2-.125-1.805a24.96 24.96 0 01-.042-.787 22.406 22.406 0 00-.042-.787c.121 0 .286.01.495.028s.437.032.683.041l.683.028c.209.01.369.014.48.014.112 0 .274-.004.488-.014l.689-.028c.246-.009.474-.022.683-.041s.369-.037.481-.056l-.028.543-.111 1.728a26.958 26.958 0 00-.056 1.729c0 .529-.005 1.057-.014 1.581-.01.525-.015 1.052-.015 1.582v3.142c0 1.045.01 2.093.028 3.143.725-.854 1.4-1.677 2.027-2.467.627-.789 1.242-1.574 1.847-2.354a151.51 151.51 0 003.155-4.132 268.504 268.504 0 003.24-4.493c.474.093.9.139 1.282.139.381 0 .808-.046 1.281-.139a16.517 16.517 0 00-.056 1.337c0 .78-.005 1.552-.014 2.313a219.153 219.153 0 00.09 9.092c.069 2.253.206 4.513.411 6.779-.112-.019-.281-.037-.509-.056s-.467-.032-.718-.042l-.718-.027c-.228-.01-.397-.015-.509-.015-.074 0-.211.005-.411.015-.199.009-.408.019-.627.027-.218.01-.427.023-.627.042a4.966 4.966 0 01-.425.027l-.189.029zM640.216 111.591a301.897 301.897 0 00-.083 7.106c0 .613.004 1.225.014 1.833.009.608.014 1.215.014 1.818 0 .762.019 1.523.056 2.285s.065 1.523.084 2.285a48.159 48.159 0 00-1.171-.098c-.399-.027-.789-.042-1.17-.042s-.771.019-1.171.056c-.399.038-.789.065-1.17.084.036-.669.076-1.345.118-2.027s.071-1.358.091-2.027c.037-1.616.069-3.229.098-4.835.027-1.607.041-3.219.041-4.836 0-1.217-.027-2.442-.083-3.679a28.145 28.145 0 00-2.494.112 70.98 70.98 0 00-2.76.278c.093-.362.14-.723.14-1.08s-.019-.718-.056-1.08a.58.58 0 01-.028-.188c0-.07-.019-.123-.056-.16.362.019.72.027 1.073.027s.706.01 1.06.028c.882.019 1.75.041 2.605.069a79.1 79.1 0 004.062.028c.487-.01.978-.015 1.47-.015.743 0 1.482-.022 2.216-.069s1.473-.069 2.216-.069c-.047.194-.079.388-.098.578s-.028.378-.028.564c0 .232.01.462.028.689s.051.453.098.676c-.864-.13-1.71-.232-2.536-.307a22.633 22.633 0 00-2.522-.084l-.058 2.08zM658.972 115.451c-.037.223-.069.443-.097.662a5.3 5.3 0 00-.042.676c0 .186.014.364.042.536.027.172.06.355.097.551-.854-.056-1.702-.104-2.543-.146s-1.688-.072-2.543-.091c-.223 0-.452-.005-.689-.014-.237-.01-.472-.014-.704-.014 0 .612-.004 1.219-.014 1.818a120.029 120.029 0 000 3.609c.01.59.014 1.187.014 1.791 1.105 0 2.204-.033 3.296-.098a79.851 79.851 0 003.296-.265 4.882 4.882 0 00-.112 1.045c0 .353.019.706.056 1.059.019.065.028.126.028.182s.009.111.028.167a80.277 80.277 0 01-2.578-.098 48.745 48.745 0 00-2.592-.069c-.549 0-1.107.014-1.679.042a35.65 35.65 0 01-1.68.041c-.836 0-1.686.028-2.55.084.046-.27.069-.541.069-.815 0-.273.01-.545.028-.814.037-.893.064-1.774.083-2.647l.057-2.689c0-.725.004-1.447.014-2.167.009-.72.014-1.442.014-2.167v-3.344c0-.734-.027-1.482-.084-2.244a30.776 30.776 0 01-.083-2.257v-.376c.752.019 1.505.051 2.257.097.753.047 1.51.07 2.271.07 1.087 0 2.162-.019 3.226-.056s2.14-.065 3.227-.084a4.889 4.889 0 00-.112 1.045c0 .354.019.711.056 1.073.019.056.028.111.028.167s.009.111.028.167a414.845 414.845 0 00-3.254-.265 29.429 29.429 0 00-3.254-.069 80.4 80.4 0 00-.056 2.967c0 .529-.005 1.057-.014 1.582-.01.524-.015 1.052-.015 1.581l6.48-.223zM670.329 111.591a301.897 301.897 0 00-.083 7.106c0 .613.004 1.225.014 1.833.009.608.014 1.215.014 1.818 0 .762.019 1.523.056 2.285s.065 1.523.084 2.285a48.159 48.159 0 00-1.171-.098c-.399-.027-.789-.042-1.17-.042s-.771.019-1.171.056c-.399.038-.789.065-1.17.084.036-.669.076-1.345.118-2.027s.071-1.358.091-2.027c.037-1.616.069-3.229.098-4.835.027-1.607.041-3.219.041-4.836 0-1.217-.027-2.442-.083-3.679a28.145 28.145 0 00-2.494.112 70.98 70.98 0 00-2.76.278c.093-.362.14-.723.14-1.08s-.019-.718-.056-1.08a.58.58 0 01-.028-.188c0-.07-.019-.123-.056-.16.362.019.72.027 1.073.027s.706.01 1.06.028c.882.019 1.75.041 2.605.069a79.1 79.1 0 004.062.028c.487-.01.978-.015 1.47-.015.743 0 1.482-.022 2.216-.069s1.473-.069 2.216-.069c-.047.194-.079.388-.098.578s-.028.378-.028.564c0 .232.01.462.028.689s.051.453.098.676c-.864-.13-1.71-.232-2.536-.307a22.633 22.633 0 00-2.522-.084l-.058 2.08z"/>
    </g>
  </g>
</svg>
